<svg xmlns="http://www.w3.org/2000/svg" xmlns:xlink="http://www.w3.org/1999/xlink" width="50" zoomAndPan="magnify" viewBox="0 0 37.5 37.499999" height="50" preserveAspectRatio="xMidYMid meet" version="1.0"><defs><clipPath id="58992443eb"><path d="M 0 0 L 37.007812 0 L 37.007812 37.007812 L 0 37.007812 Z M 0 0 " clip-rule="nonzero"/></clipPath><clipPath id="cb1999f9ad"><path d="M 18.503906 0 C 8.285156 0 0 8.285156 0 18.503906 C 0 28.722656 8.285156 37.007812 18.503906 37.007812 C 28.722656 37.007812 37.007812 28.722656 37.007812 18.503906 C 37.007812 8.285156 28.722656 0 18.503906 0 Z M 18.503906 0 " clip-rule="nonzero"/></clipPath><clipPath id="619bd71754"><path d="M 9 2.960938 L 33.824219 2.960938 L 33.824219 27 L 9 27 Z M 9 2.960938 " clip-rule="nonzero"/></clipPath><clipPath id="8e3f1e1b23"><path d="M 8 29 L 11 29 L 11 31.824219 L 8 31.824219 Z M 8 29 " clip-rule="nonzero"/></clipPath><clipPath id="192bbcf772"><path d="M 4.957031 23 L 9 23 L 9 27 L 4.957031 27 Z M 4.957031 23 " clip-rule="nonzero"/></clipPath></defs><g clip-path="url(#58992443eb)"><g clip-path="url(#cb1999f9ad)"><path fill="#0c356a" d="M 0 0 L 37.007812 0 L 37.007812 37.007812 L 0 37.007812 Z M 0 0 " fill-opacity="1" fill-rule="nonzero"/></g></g><g clip-path="url(#619bd71754)"><path fill="#ffc436" d="M 33.996094 11.832031 C 33.9375 11.648438 33.808594 11.542969 33.617188 11.515625 L 25.734375 10.367188 L 22.207031 3.222656 C 22.164062 3.148438 22.105469 3.089844 22.027344 3.046875 C 21.953125 3.003906 21.871094 2.980469 21.785156 2.980469 C 21.699219 2.980469 21.617188 3.003906 21.542969 3.046875 C 21.46875 3.089844 21.40625 3.148438 21.363281 3.222656 L 17.835938 10.367188 L 9.949219 11.515625 C 9.757812 11.542969 9.628906 11.648438 9.570312 11.832031 C 9.507812 12.019531 9.550781 12.179688 9.6875 12.316406 L 13.472656 16.003906 L 14.132812 15.332031 L 11.03125 12.308594 L 18.214844 11.265625 C 18.378906 11.238281 18.496094 11.15625 18.570312 11.007812 L 21.785156 4.496094 L 24.996094 11.007812 C 25.070312 11.15625 25.1875 11.242188 25.351562 11.265625 L 32.539062 12.308594 L 27.335938 17.375 C 27.21875 17.492188 27.175781 17.628906 27.203125 17.792969 L 28.429688 24.949219 L 26.710938 24.042969 L 26.269531 24.878906 L 28.835938 26.226562 C 29.007812 26.316406 29.175781 26.304688 29.332031 26.191406 C 29.488281 26.078125 29.550781 25.921875 29.519531 25.730469 L 28.171875 17.878906 L 33.878906 12.316406 C 34.019531 12.179688 34.058594 12.019531 33.996094 11.832031 Z M 33.996094 11.832031 " fill-opacity="1" fill-rule="nonzero"/></g><path fill="#ffc436" d="M 22.605469 25.527344 L 24.019531 25.996094 C 24.15625 26.042969 24.289062 26.027344 24.414062 25.953125 C 24.539062 25.875 24.613281 25.761719 24.632812 25.617188 L 25.105469 22.332031 C 25.15625 21.960938 25.101562 21.601562 24.941406 21.261719 C 24.777344 20.917969 24.535156 20.652344 24.210938 20.457031 C 23.886719 20.261719 23.535156 20.171875 23.160156 20.1875 C 22.78125 20.203125 22.4375 20.324219 22.132812 20.546875 L 20.519531 21.722656 L 20.84375 18.785156 L 24.867188 16.550781 C 25.027344 16.460938 25.109375 16.324219 25.109375 16.136719 L 25.109375 14.253906 C 25.109375 14.171875 25.089844 14.09375 25.046875 14.023438 C 25.003906 13.949219 24.949219 13.890625 24.875 13.851562 C 24.804688 13.808594 24.726562 13.785156 24.644531 13.785156 C 24.558594 13.785156 24.480469 13.804688 24.410156 13.84375 L 19.800781 16.402344 C 19.886719 16.164062 19.929688 15.921875 19.933594 15.667969 C 19.933594 15.371094 19.878906 15.085938 19.773438 14.808594 C 19.664062 14.535156 19.511719 14.285156 19.3125 14.066406 C 19.109375 13.851562 18.878906 13.675781 18.613281 13.546875 C 18.347656 13.417969 18.066406 13.339844 17.769531 13.316406 C 17.476562 13.292969 17.183594 13.320312 16.902344 13.40625 C 16.617188 13.492188 16.359375 13.625 16.128906 13.808594 C 15.894531 13.992188 15.703125 14.210938 15.550781 14.464844 C 15.402344 14.71875 15.300781 14.992188 15.253906 15.285156 C 15.207031 15.578125 15.214844 15.871094 15.277344 16.160156 C 15.339844 16.449219 15.453125 16.714844 15.617188 16.960938 C 15.78125 17.210938 15.984375 17.417969 16.230469 17.585938 C 16.472656 17.757812 16.734375 17.878906 17.023438 17.945312 L 11.703125 20.902344 C 11.542969 20.992188 11.460938 21.128906 11.460938 21.316406 L 11.460938 23.199219 C 11.460938 23.378906 11.539062 23.515625 11.699219 23.605469 C 11.859375 23.695312 12.015625 23.695312 12.171875 23.601562 L 16.085938 21.253906 L 15.71875 25.300781 L 12.121094 27.996094 C 11.992188 28.09375 11.929688 28.21875 11.929688 28.375 L 11.929688 30.257812 C 11.933594 30.449219 12.019531 30.589844 12.191406 30.675781 C 12.363281 30.761719 12.527344 30.746094 12.679688 30.632812 L 22.570312 23.324219 L 22.292969 25.003906 C 22.273438 25.117188 22.292969 25.222656 22.351562 25.324219 C 22.414062 25.421875 22.496094 25.488281 22.605469 25.527344 Z M 16.167969 15.667969 C 16.167969 15.480469 16.203125 15.300781 16.273438 15.128906 C 16.347656 14.953125 16.449219 14.800781 16.582031 14.667969 C 16.710938 14.535156 16.867188 14.433594 17.039062 14.363281 C 17.210938 14.292969 17.390625 14.253906 17.578125 14.253906 C 17.765625 14.253906 17.945312 14.292969 18.117188 14.363281 C 18.292969 14.433594 18.445312 14.535156 18.578125 14.667969 C 18.710938 14.800781 18.8125 14.953125 18.882812 15.128906 C 18.953125 15.300781 18.992188 15.480469 18.992188 15.667969 C 18.992188 15.855469 18.953125 16.035156 18.882812 16.207031 C 18.8125 16.378906 18.710938 16.535156 18.578125 16.664062 C 18.445312 16.796875 18.292969 16.898438 18.117188 16.972656 C 17.945312 17.042969 17.765625 17.078125 17.578125 17.078125 C 17.390625 17.078125 17.210938 17.042969 17.039062 16.972656 C 16.867188 16.898438 16.710938 16.796875 16.582031 16.664062 C 16.449219 16.535156 16.347656 16.378906 16.273438 16.207031 C 16.203125 16.035156 16.167969 15.855469 16.167969 15.667969 Z M 12.871094 29.324219 L 12.871094 28.609375 L 16.449219 25.925781 C 16.5625 25.84375 16.625 25.734375 16.636719 25.59375 L 17.109375 20.417969 C 17.125 20.222656 17.050781 20.078125 16.890625 19.976562 C 16.726562 19.871094 16.5625 19.871094 16.398438 19.96875 L 12.402344 22.367188 L 12.402344 21.589844 L 24.167969 15.054688 L 24.167969 15.863281 L 20.175781 18.078125 C 20.035156 18.160156 19.953125 18.277344 19.9375 18.441406 L 19.464844 22.675781 C 19.445312 22.878906 19.519531 23.03125 19.699219 23.132812 C 19.875 23.238281 20.046875 23.226562 20.210938 23.109375 L 22.6875 21.304688 C 22.839844 21.195312 23.011719 21.136719 23.199219 21.128906 C 23.390625 21.117188 23.5625 21.164062 23.726562 21.261719 C 23.886719 21.359375 24.011719 21.492188 24.089844 21.664062 C 24.171875 21.835938 24.199219 22.011719 24.171875 22.199219 L 23.785156 24.925781 L 23.289062 24.761719 L 23.691406 22.332031 C 23.726562 22.125 23.652344 21.964844 23.472656 21.855469 C 23.292969 21.746094 23.117188 21.753906 22.949219 21.878906 Z M 12.871094 29.324219 " fill-opacity="1" fill-rule="nonzero"/><g clip-path="url(#8e3f1e1b23)"><path fill="#ffc436" d="M 8.351562 31.300781 L 10.230469 29.882812 L 10.796875 30.636719 L 8.917969 32.050781 Z M 8.351562 31.300781 " fill-opacity="1" fill-rule="nonzero"/></g><path fill="#ffc436" d="M 5.007812 29.398438 L 10.183594 25.945312 L 10.707031 26.730469 L 5.527344 30.179688 Z M 5.007812 29.398438 " fill-opacity="1" fill-rule="nonzero"/><g clip-path="url(#192bbcf772)"><path fill="#ffc436" d="M 4.996094 25.375 L 8.289062 23.128906 L 8.820312 23.910156 L 5.523438 26.15625 Z M 4.996094 25.375 " fill-opacity="1" fill-rule="nonzero"/></g></svg>